<svg version="1" xmlns="http://www.w3.org/2000/svg" width="682.667" height="682.667" viewBox="0 0 512.000000 512.000000"><path d="M229.5 1.1c-32 3.5-68 14.8-96 30.2C58.4 72.6 8.7 148 .9 232.4-.6 248.2.2 279.3 2.5 294c6.6 43.3 24.9 85.5 52.3 120.9 8.5 11 31.2 33.8 42.2 42.2 24.8 19.2 56.6 36 82.6 43.8 29.2 8.7 43.1 10.6 76.4 10.6 29.5 0 38.1-.9 60-6.2 96.1-23.2 170.2-99.5 190.9-196.4 6.8-31.8 6.9-72 .2-104.5-11.1-54.3-42.6-107.8-83.5-142.1-39-32.8-81.9-52.4-130.6-59.8-12.7-2-50.6-2.8-63.5-1.4zm89.9 112.8c14.2 2.8 30.3 10.4 42 19.9 13.7 11.2 25.7 29.7 30.8 47.7 2.3 8 2.3 8.2 2.3 75v67l-2.8 9c-8.7 27.8-27.8 49.1-53.9 60.1-15.5 6.6-16.7 6.7-75.8 7.1-56.3.5-66.4 0-78.9-3.9-26.6-8.2-49.6-29.3-59.4-54.4-6.3-15.9-6.2-14.7-6.2-86.4v-65.5l2.8-8.8c12.1-38.6 42.7-64 81.6-67.7 12.8-1.2 110.4-.4 117.5.9z"/><path d="M200.1 135.1c-15.9 2.4-28.1 8.7-40.2 20.9-7.1 7.1-9.4 10.3-13.3 18.1-7.7 15.7-7.7 15.5-7.4 85.3l.3 61.1 2.7 7.8c8.5 24.9 28.9 43.1 54.3 48.2 7 1.4 15.6 1.6 63.5 1.3l55.5-.3 8-2.8c23.9-8.4 41.6-27.1 47.5-50.3 1.9-7.4 2-11.1 2-68.1 0-68 0-68.1-7.3-82.2-7.4-14.3-18.6-25.5-32.2-32.1-15.4-7.5-13.7-7.3-73.5-7.6-30-.1-56.3.2-59.9.7zM334.2 167c4.6 1.3 9.6 6.4 10.9 11.2 3.1 11.7-7.5 22.5-19.5 19.8-14.2-3.2-16.5-23.4-3.3-29.9 4.7-2.4 6.6-2.5 11.9-1.1zm-61.8 19.5c9.2 1.9 21.7 8.2 29.6 14.7 26.7 22.2 33.5 61.6 15.8 91.6-4.7 8-17 20.1-25.3 25-23.4 13.7-52.1 13.1-75.3-1.5-14.5-9.1-25.8-24.9-30.3-42.1-2.5-9.7-2.7-25-.4-34.7 5.8-25 26.3-45.9 51.5-52.4 9.2-2.4 24.6-2.7 34.4-.6z"/><path d="M248.3 207.1c-14 2.4-27.5 11.6-35 23.9-11.7 19.3-7.2 47.7 10 62.6 11.9 10.2 29.7 14.6 44.1 10.9 20-5.2 34.3-20.8 37.8-41.3 3.1-18.3-6.4-38.7-22.8-49.2-9.2-5.8-23.6-8.7-34.1-6.9z"/></svg>