<?xml version="1.0" standalone="no"?>
<!DOCTYPE svg PUBLIC "-//W3C//DTD SVG 20010904//EN"
 "http://www.w3.org/TR/2001/REC-SVG-20010904/DTD/svg10.dtd">
<svg version="1.0" xmlns="http://www.w3.org/2000/svg"
 width="1000.000000pt" height="1000.000000pt" viewBox="0 0 1000.000000 1000.000000"
 preserveAspectRatio="xMidYMid meet">
<metadata>
Created by potrace 1.11, written by Peter Selinger 2001-2013
</metadata>
<g transform="translate(0.000000,1000.000000) scale(0.100000,-0.100000)"
fill="#000000" stroke="none">
<path d="M5063 8283 c9 -2 23 -2 30 0 6 3 -1 5 -18 5 -16 0 -22 -2 -12 -5z"/>
<path d="M5705 8190 c28 -12 37 -12 30 0 -3 6 -16 10 -28 9 -21 0 -21 -1 -2
-9z"/>
<path d="M5788 8163 c7 -3 16 -2 19 1 4 3 -2 6 -13 5 -11 0 -14 -3 -6 -6z"/>
<path d="M5825 8162 c6 -5 57 -25 115 -45 203 -67 367 -137 485 -205 203 -116
275 -160 311 -186 23 -17 66 -48 96 -69 29 -21 82 -65 118 -97 35 -33 68 -60
72 -60 29 0 438 -448 438 -480 0 -4 12 -20 26 -36 45 -51 204 -302 204 -323 0
-6 4 -11 8 -11 5 0 15 -19 22 -42 8 -24 22 -56 32 -73 10 -16 18 -37 18 -47 0
-9 4 -18 9 -20 10 -3 81 -153 81 -172 1 -6 9 -29 20 -51 11 -22 19 -44 20 -48
0 -5 7 -23 15 -40 29 -64 69 -220 85 -337 5 -36 16 -96 24 -135 39 -181 51
-581 22 -755 -8 -52 -20 -129 -26 -170 -6 -41 -20 -113 -31 -160 -10 -47 -19
-92 -19 -98 0 -7 -9 -32 -20 -54 -11 -23 -20 -50 -20 -59 0 -10 -4 -21 -10
-24 -5 -3 -10 -18 -10 -32 0 -17 -4 -24 -14 -20 -10 4 -14 -3 -13 -27 0 -19
-6 -41 -16 -50 -9 -10 -17 -22 -17 -27 0 -6 -9 -29 -19 -52 -11 -24 -23 -55
-26 -70 -4 -15 -13 -27 -19 -27 -14 0 -76 -117 -76 -144 0 -10 -9 -20 -20 -23
-11 -3 -20 -9 -20 -14 0 -5 -15 -30 -34 -56 -18 -27 -42 -64 -52 -83 -31 -58
-52 -83 -63 -76 -6 4 -16 -4 -23 -18 -6 -14 -15 -26 -20 -26 -4 0 -8 -9 -8
-20 0 -11 -6 -23 -14 -26 -8 -3 -19 -19 -25 -36 -8 -23 -15 -28 -31 -23 -15 5
-22 1 -29 -17 -5 -13 -16 -30 -25 -37 -9 -7 -16 -20 -16 -27 0 -8 -7 -14 -15
-14 -8 0 -15 -7 -15 -15 0 -9 -6 -18 -14 -21 -8 -3 -16 -14 -19 -25 -3 -12
-14 -19 -29 -19 -14 0 -33 -12 -48 -32 -14 -18 -44 -52 -67 -75 -24 -24 -43
-48 -43 -53 0 -6 -11 -10 -25 -10 -14 0 -25 -6 -25 -13 0 -16 -42 -57 -58 -57
-7 0 -12 -4 -12 -10 0 -5 -6 -10 -13 -10 -7 0 -30 -17 -52 -38 -22 -21 -48
-41 -57 -45 -10 -3 -18 -13 -18 -22 0 -8 -4 -15 -10 -15 -5 0 -19 -8 -29 -17
-59 -53 -81 -72 -127 -111 -29 -23 -55 -42 -58 -42 -4 0 -16 -9 -28 -20 -12
-11 -28 -20 -35 -20 -7 0 -13 -4 -13 -10 0 -5 -7 -10 -15 -10 -9 0 -18 -7 -21
-15 -4 -8 -12 -15 -18 -15 -7 0 -21 -8 -32 -18 -25 -21 -51 -38 -84 -54 -14
-7 -27 -15 -30 -19 -3 -3 -20 -12 -37 -20 -18 -8 -33 -17 -33 -21 0 -5 -9 -8
-20 -8 -10 0 -23 -6 -27 -13 -10 -17 -184 -71 -192 -60 -3 4 -19 16 -36 25
-18 10 -34 29 -39 47 -5 17 -15 31 -22 31 -8 0 -14 8 -14 19 0 13 -12 22 -45
31 -25 7 -45 19 -45 26 0 7 87 56 193 108 277 136 455 258 645 440 256 246
471 605 571 956 69 241 107 528 97 725 -13 236 -52 315 -155 317 -42 0 -38 3
-320 -161 -440 -255 -919 -478 -1391 -648 -231 -83 -316 -108 -545 -157 -543
-119 -968 -174 -1515 -197 -309 -13 -313 -13 -351 -47 -65 -58 -48 -164 53
-333 189 -313 477 -600 816 -809 l102 -64 -1 -40 c-1 -23 -3 -33 -6 -24 -3 14
-9 15 -33 7 -23 -9 -32 -21 -46 -67 -10 -31 -24 -61 -31 -65 -7 -4 -13 -15
-13 -23 0 -8 -4 -12 -10 -9 -5 3 -10 1 -10 -5 0 -36 -91 -59 -112 -28 -7 10
-11 10 -15 1 -6 -15 -33 -17 -33 -3 0 6 -9 10 -20 10 -11 0 -23 6 -26 14 -3 8
-19 18 -36 21 -16 4 -32 13 -34 20 -3 7 -16 16 -30 19 -13 4 -33 15 -44 26
-11 11 -27 20 -36 20 -9 0 -27 11 -39 24 -12 13 -32 27 -43 31 -12 3 -22 13
-22 21 0 8 -9 14 -20 14 -11 0 -23 7 -26 15 -4 8 -14 15 -24 15 -10 0 -28 11
-41 25 -13 13 -29 25 -35 25 -6 0 -17 11 -24 25 -7 14 -16 23 -18 20 -3 -3
-15 7 -28 20 -13 14 -26 25 -30 25 -3 0 -21 15 -39 32 -29 29 -68 65 -167 154
-14 13 -33 24 -42 24 -9 0 -16 7 -16 15 0 8 -7 15 -15 15 -15 0 -125 109 -125
124 0 14 -41 46 -59 46 -15 0 -101 101 -101 118 0 17 -51 61 -65 56 -9 -4 -15
0 -15 8 0 8 -9 23 -20 33 -12 10 -29 37 -39 59 -10 23 -28 50 -39 62 -11 11
-23 30 -26 42 -4 11 -13 19 -20 16 -6 -2 -22 12 -34 33 -11 21 -31 49 -44 64
-29 32 -44 55 -63 96 -9 18 -19 33 -24 33 -5 0 -12 13 -16 30 -4 17 -11 30
-16 30 -5 0 -9 7 -9 15 0 8 -6 15 -14 15 -15 0 -26 20 -26 48 -1 9 -9 35 -20
57 -11 22 -19 46 -20 53 0 7 -4 20 -9 30 -60 111 -93 210 -112 337 -6 44 -16
84 -20 90 -5 5 -9 23 -9 40 0 17 -4 35 -9 41 -5 5 -11 38 -14 74 -3 36 -11 90
-16 120 -20 104 -17 449 6 630 4 30 6 59 5 64 -2 4 2 23 8 40 5 17 26 109 45
204 33 163 68 288 100 359 8 17 15 34 15 38 0 11 73 179 85 195 6 8 33 62 59
120 26 58 58 119 70 135 12 17 26 37 30 45 22 47 121 192 145 214 11 11 21 24
21 30 0 15 124 172 187 235 28 29 67 72 85 96 18 25 36 45 40 45 4 0 29 21 55
48 26 26 62 56 78 66 17 11 53 42 82 69 29 27 83 72 120 99 85 61 330 212 376
232 42 17 62 42 26 31 -13 -4 -33 -13 -44 -20 -11 -6 -56 -31 -100 -55 -234
-125 -476 -310 -705 -540 -375 -375 -616 -761 -789 -1264 -187 -541 -218
-1183 -86 -1772 101 -448 317 -900 608 -1272 335 -428 766 -764 1255 -979 115
-50 327 -130 409 -154 24 -7 44 -26 72 -67 70 -104 164 -177 301 -234 152 -64
214 -73 490 -73 223 0 254 2 340 24 180 44 332 134 422 248 42 54 51 59 114
77 725 201 1301 579 1757 1151 287 361 511 829 611 1278 63 282 87 517 80 807
-8 390 -72 724 -204 1075 -179 476 -462 897 -835 1242 -287 265 -528 423 -915
601 -72 34 -219 87 -305 112 -44 13 -84 26 -90 30 -17 12 -71 23 -60 12z
m1338 -3397 c0 -119 -6 -234 -14 -284 l-14 -83 -155 -90 c-537 -312 -1264
-624 -1705 -733 -449 -110 -923 -183 -1434 -220 -304 -21 -317 -21 -347 13
-94 104 -234 301 -279 392 -15 30 -31 63 -36 72 -5 10 -9 19 -9 22 0 2 75 6
168 10 613 25 1221 110 1787 250 381 94 1071 381 1600 666 62 33 365 204 400
225 18 11 21 10 29 -14 5 -14 9 -116 9 -226z"/>
<path d="M3978 8123 c7 -3 16 -2 19 1 4 3 -2 6 -13 5 -11 0 -14 -3 -6 -6z"/>
<path d="M3835 8081 c-38 -15 -79 -31 -90 -35 -52 -20 -60 -26 -25 -20 19 4
40 10 45 14 6 5 43 20 84 34 41 14 77 28 79 31 11 11 -27 1 -93 -24z"/>
<path d="M3604 7985 c-25 -19 -14 -19 22 0 16 8 22 15 13 15 -8 0 -24 -7 -35
-15z"/>
<path d="M3555 7960 c-3 -6 1 -7 9 -4 18 7 21 14 7 14 -6 0 -13 -4 -16 -10z"/>
<path d="M5785 7222 c-169 -38 -291 -93 -420 -189 -182 -135 -314 -332 -377
-564 -20 -74 -23 -106 -22 -264 0 -166 2 -187 27 -268 112 -365 380 -627 735
-718 236 -60 480 -37 700 66 397 187 636 614 582 1041 -30 238 -117 426 -274
592 -134 141 -292 236 -477 288 -128 35 -354 43 -474 16z m311 -27 c89 -14
219 -50 239 -65 6 -4 27 -13 48 -20 105 -33 304 -203 401 -340 65 -92 86 -132
119 -235 79 -240 76 -424 -9 -655 -128 -346 -458 -598 -837 -639 -196 -21
-454 50 -629 173 -289 202 -461 562 -427 889 15 135 65 298 124 398 154 264
400 433 710 489 125 23 149 23 261 5z"/>
<path d="M5682 6794 c-114 -23 -190 -85 -241 -194 -35 -74 -37 -201 -4 -272
69 -150 247 -237 399 -194 257 73 341 381 155 567 -87 86 -190 118 -309 93z"/>
<path d="M3488 6055 c-198 -48 -380 -198 -467 -385 -48 -104 -65 -181 -64
-305 1 -199 65 -350 207 -490 134 -132 271 -192 461 -202 92 -5 124 -2 195 16
217 54 374 180 471 377 197 403 -34 888 -471 989 -81 18 -255 18 -332 0z m294
-30 c149 -31 332 -149 408 -261 82 -122 124 -253 124 -389 -1 -176 -67 -332
-198 -460 -135 -134 -283 -197 -461 -196 -247 0 -479 139 -585 352 -77 151
-99 308 -64 448 87 351 437 578 776 506z"/>
<path d="M3585 5489 c-58 -14 -132 -66 -166 -115 -16 -24 -37 -72 -45 -107
-15 -58 -15 -69 0 -126 61 -238 343 -308 504 -126 98 112 97 272 -4 384 -70
78 -188 115 -289 90z"/>
</g>
</svg>
